<svg width="189" height="38" fill="none" xmlns="http://www.w3.org/2000/svg"><path d="M52.091 13.032h-5.778V19h-3.009V4.395h9.51v2.437h-6.5v3.772h5.777v2.428zM57.76 19h-3.01V4.395h3.01V19zm5.808-2.418h6.39V19h-9.4V4.395h3.01v12.188zM74.892 19h-3.01V4.395h3.01V19zm5.808-5.146V19h-3.01V4.395h5.698c1.097 0 2.06.2 2.889.602.836.401 1.478.973 1.926 1.715.448.736.672 1.575.672 2.518 0 1.43-.492 2.561-1.475 3.39-.976.823-2.33 1.234-4.062 1.234H80.7zm0-2.437h2.688c.796 0 1.4-.188 1.816-.562.42-.375.631-.91.631-1.605 0-.716-.21-1.294-.631-1.735-.422-.442-1.004-.67-1.746-.683H80.7v4.585zm19.038 1.253H93.96v3.912h6.782V19h-9.79V4.395h9.769v2.437h-6.76v3.481h5.777v2.357zm7.885 6.33V4.395h5.116c1.772 0 3.116.34 4.032 1.023.916.675 1.374 1.669 1.374 2.98 0 .715-.184 1.347-.551 1.895-.368.542-.88.94-1.535 1.194.749.187 1.337.565 1.765 1.133.435.569.652 1.264.652 2.087 0 1.404-.448 2.467-1.344 3.19-.896.722-2.173 1.09-3.832 1.103h-5.677zm3.009-6.36v3.942h2.578c.709 0 1.261-.167 1.655-.501.401-.341.602-.81.602-1.404 0-1.338-.692-2.017-2.076-2.037h-2.759zm0-2.126h2.227c1.518-.027 2.277-.632 2.277-1.816 0-.662-.194-1.137-.582-1.424-.381-.294-.986-.442-1.815-.442h-2.107v3.682zm18.357 5.477h-5.277L122.709 19h-3.2l5.437-14.605h2.789L133.202 19h-3.2l-1.013-3.01zm-4.464-2.438h3.651l-1.835-5.467-1.816 5.467zm19.831-6.72h-4.474V19h-3.009V6.832h-4.413V4.395h11.896v2.437zM149.281 19h-3.009V4.395h3.009V19zm10.373-3.832c0-.568-.201-1.003-.602-1.304-.402-.308-1.124-.629-2.167-.963-1.043-.34-1.869-.675-2.478-1.003-1.658-.896-2.487-2.103-2.487-3.621 0-.79.22-1.491.662-2.107.448-.622 1.086-1.106 1.916-1.454.836-.348 1.772-.522 2.808-.522 1.044 0 1.973.19 2.789.572.816.375 1.448.906 1.896 1.595.454.689.682 1.471.682 2.347h-3.009c0-.669-.211-1.187-.632-1.555-.422-.374-1.014-.561-1.776-.561-.735 0-1.307.157-1.715.471a1.458 1.458 0 00-.612 1.224c0 .475.237.873.712 1.194.482.32 1.187.621 2.117.902 1.712.515 2.959 1.154 3.741 1.916.783.763 1.174 1.712 1.174 2.85 0 1.263-.478 2.256-1.435 2.978-.956.716-2.243 1.074-3.862 1.074-1.123 0-2.146-.204-3.069-.612-.923-.415-1.628-.98-2.117-1.695-.481-.716-.722-1.545-.722-2.488h3.02c0 1.611.963 2.417 2.888 2.417.716 0 1.274-.143 1.676-.431.401-.294.602-.702.602-1.224zm16.059-8.336h-4.474V19h-3.009V6.832h-4.414V4.395h11.897v2.437zm8.767 9.159h-5.276L178.201 19h-3.2l5.437-14.605h2.788L188.693 19h-3.2l-1.013-3.01zm-4.464-2.438h3.652l-1.836-5.467-1.816 5.467zM42.983 34.648v-8.474h2.393c.737 0 1.389.163 1.955.49a3.29 3.29 0 011.31 1.39c.31.601.467 1.292.47 2.072v.541c0 .8-.154 1.5-.465 2.101a3.233 3.233 0 01-1.32 1.385c-.571.322-1.237.487-1.997.495h-2.346zm1.118-7.554v6.64h1.175c.862 0 1.531-.268 2.008-.803.482-.535.722-1.298.722-2.287v-.495c0-.962-.227-1.709-.68-2.24-.451-.536-1.091-.807-1.921-.815H44.1zm11.494 3.637h-3.672v3.003h4.266v.914h-5.384v-8.474h5.325v.92h-4.207v2.723h3.672v.914zm4.481.14c-.958-.276-1.656-.613-2.095-1.013a1.954 1.954 0 01-.652-1.49c0-.667.266-1.218.798-1.652.535-.439 1.23-.658 2.083-.658.582 0 1.1.112 1.554.337.458.225.81.536 1.06.931.251.396.378.829.378 1.298h-1.124c0-.512-.163-.913-.489-1.204-.325-.295-.785-.443-1.379-.443-.55 0-.982.123-1.292.367-.306.24-.46.576-.46 1.007 0 .345.146.638.437.879.295.236.793.454 1.495.651.707.198 1.258.418 1.653.658.4.237.695.514.885.832.194.318.29.693.29 1.124 0 .686-.267 1.237-.802 1.652-.536.412-1.252.617-2.148.617-.582 0-1.125-.11-1.63-.332-.504-.224-.893-.531-1.169-.919a2.248 2.248 0 01-.407-1.321h1.123c0 .512.188.917.564 1.216.38.295.887.442 1.52.442.589 0 1.041-.12 1.355-.36.315-.24.472-.569.472-.984 0-.415-.146-.735-.437-.96-.29-.229-.818-.454-1.583-.675zm9.37-.14h-3.672v3.003h4.266v.914h-5.384v-8.474h5.325v.92h-4.207v2.723h3.672v.914zm8.497 3.917H76.82l-4.266-6.53v6.53H71.43v-8.474h1.123l4.277 6.56v-6.56h1.112v8.474zm4.79-1.484l2.42-6.99h1.223l-3.143 8.474h-.99l-3.136-8.474h1.216l2.41 6.99zm11.22-2.48c0 .83-.14 1.556-.419 2.177-.28.617-.675 1.089-1.187 1.414-.512.326-1.11.49-1.792.49-.668 0-1.26-.164-1.776-.49-.516-.33-.917-.797-1.204-1.402-.284-.61-.429-1.313-.437-2.113v-.61c0-.816.142-1.535.425-2.16.283-.625.683-1.102 1.199-1.432.52-.333 1.114-.5 1.78-.5.68 0 1.277.165 1.793.494.52.326.92.802 1.2 1.426.279.621.418 1.345.418 2.171v.536zm-1.111-.547c0-1.004-.202-1.774-.606-2.31-.403-.54-.968-.809-1.693-.809-.706 0-1.263.27-1.67.809-.404.535-.612 1.28-.623 2.235v.623c0 .973.204 1.74.61 2.298.412.555.977.833 1.695.833.721 0 1.28-.262 1.676-.786.395-.528.599-1.282.61-2.264v-.628zm3.91 3.597h4.016v.914h-5.139v-8.474h1.123v7.56zm7.072-.57l2.421-6.99h1.222l-3.143 8.474h-.989l-3.137-8.474h1.216l2.41 6.99zm9.573-2.433h-3.672v3.003h4.266v.914h-5.384v-8.474h5.326v.92h-4.208v2.723h3.672v.914zm1.985 3.917v-8.474h2.392c.737 0 1.389.163 1.955.49a3.281 3.281 0 011.309 1.39c.311.601.468 1.292.472 2.072v.541c0 .8-.155 1.5-.466 2.101a3.23 3.23 0 01-1.321 1.385c-.57.322-1.236.487-1.996.495h-2.345zm1.117-7.554v6.64h1.176c.861 0 1.53-.268 2.007-.803.482-.535.722-1.298.722-2.287v-.495c0-.962-.227-1.709-.681-2.24-.45-.536-1.09-.807-1.92-.815h-1.304zm13.223 3.59c0 .83-.14 1.556-.419 2.177-.28.617-.676 1.089-1.188 1.414-.512.326-1.109.49-1.792.49-.667 0-1.259-.164-1.775-.49-.516-.33-.918-.797-1.205-1.402-.283-.61-.429-1.313-.436-2.113v-.61c0-.816.141-1.535.424-2.16.284-.625.683-1.102 1.199-1.432.52-.333 1.114-.5 1.781-.5.679 0 1.277.165 1.793.494.52.326.919.802 1.199 1.426.279.621.419 1.345.419 2.171v.536zm-1.112-.547c0-1.004-.202-1.774-.605-2.31-.404-.54-.968-.809-1.694-.809-.706 0-1.263.27-1.67.809-.404.535-.611 1.28-.623 2.235v.623c0 .973.204 1.74.611 2.298.412.555.976.833 1.694.833.722 0 1.28-.262 1.676-.786.396-.528.599-1.282.611-2.264v-.628zm5.895 1.083h-1.99v3.428h-1.123v-8.474h2.805c.954 0 1.688.218 2.2.652.516.435.774 1.067.774 1.897 0 .528-.144.988-.431 1.38-.283.391-.679.684-1.187.878l1.99 3.597v.07h-1.198l-1.84-3.428zm-1.99-.914h1.717c.555 0 .995-.143 1.321-.43.33-.288.495-.672.495-1.153 0-.523-.157-.925-.472-1.204-.31-.28-.76-.421-1.35-.425h-1.711v3.212zm9.184 4.342v-8.474h2.392c.737 0 1.389.163 1.955.49a3.284 3.284 0 011.31 1.39c.31.601.467 1.292.471 2.072v.541c0 .8-.155 1.5-.466 2.101a3.225 3.225 0 01-1.321 1.385c-.57.322-1.235.487-1.996.495h-2.345zm1.117-7.554v6.64h1.176c.861 0 1.53-.268 2.008-.803.481-.535.721-1.298.721-2.287v-.495c0-.962-.227-1.709-.681-2.24-.45-.536-1.09-.807-1.92-.815h-1.304zm11.494 3.637h-3.672v3.003h4.266v.914h-5.383v-8.474h5.325v.92h-4.208v2.723h3.672v.914zm9.62 1.705h-3.55l-.797 2.212h-1.152l3.235-8.474h.978l3.242 8.474h-1.147l-.809-2.212zm-3.212-.92h2.881l-1.444-3.962-1.437 3.963zm7.426-.185v3.317h-1.118v-8.474h3.126c.927 0 1.652.237 2.176.71.528.474.792 1.1.792 1.88 0 .823-.258 1.457-.774 1.903-.512.442-1.248.664-2.206.664h-1.996zm0-.914h2.008c.597 0 1.055-.14 1.373-.42.318-.282.477-.69.477-1.221 0-.505-.159-.908-.477-1.21-.318-.303-.755-.46-1.309-.472h-2.072v3.323zm7.519.914v3.317h-1.117v-8.474h3.125c.927 0 1.653.237 2.176.71.528.474.792 1.1.792 1.88 0 .823-.258 1.457-.774 1.903-.512.442-1.248.664-2.206.664h-1.996zm0-.914h2.008c.597 0 1.055-.14 1.373-.42.318-.282.478-.69.478-1.221 0-.505-.16-.908-.478-1.21-.318-.303-.754-.46-1.309-.472h-2.072v3.323zm8.898.454c-.958-.276-1.656-.613-2.095-1.013a1.956 1.956 0 01-.652-1.49c0-.667.266-1.218.798-1.652.535-.439 1.23-.658 2.083-.658.582 0 1.1.112 1.554.337.458.225.811.536 1.059.931.253.396.379.829.379 1.298h-1.124c0-.512-.163-.913-.488-1.204-.326-.295-.786-.443-1.38-.443-.551 0-.981.123-1.292.367-.306.24-.459.576-.459 1.007 0 .345.145.638.436.879.295.236.793.454 1.496.651.706.198 1.257.418 1.653.658.399.237.694.514.884.832.194.318.291.693.291 1.124 0 .686-.268 1.237-.803 1.652-.535.412-1.251.617-2.148.617-.582 0-1.125-.11-1.629-.332-.504-.224-.894-.531-1.17-.919a2.252 2.252 0 01-.407-1.321h1.123c0 .512.188.917.565 1.216.38.295.886.442 1.518.442.59 0 1.042-.12 1.356-.36.315-.24.472-.569.472-.984 0-.415-.146-.735-.437-.96-.291-.229-.818-.454-1.583-.675z" fill="#0F2137"/><g clip-path="url(#clip0)"><path d="M23.39 35.303v-4.222l-6.797-1.407L18 35.304h5.39z" fill="#9ABADB"/><path d="M12.61 35.303H18v-5.63l-5.39 1.408v4.222z" fill="#D1E8FF"/><path d="M36 24.748L16.593 23.34 18 31.081h18v-6.333z" fill="#D1E8FF"/><path d="M0 24.748v6.333h18v-7.74L0 24.747z" fill="#F5F5FF"/><path d="M26.557 34.248H18l-.704 1.055.704 1.055h8.557v-2.11z" fill="#D1E8FF"/><path d="M18 34.248H9.443v2.11H18v-2.11z" fill="#F5F5FF"/><path d="M36 3.642H18l-1.407 10.553L18 24.748h18V3.642z" fill="#294B6E"/><path d="M18 3.642H0v21.106h18V3.642z" fill="#6283A3"/><path d="M12.574 19.783l-5.588-5.588 5.588-5.588 1.491 1.492-4.096 4.096 4.096 4.096-1.491 1.492z" fill="#F5F5FF"/><path d="M23.426 19.783l-1.491-1.492 4.096-4.096-4.096-4.097 1.491-1.491 5.588 5.588-5.588 5.588zm-7.761.745l2.069.411 2.6-13.076-2.068-.412-2.601 13.077z" fill="#D1E8FF"/></g><defs><clipPath id="clip0"><path fill="#fff" transform="translate(0 2)" d="M0 0h36v36H0z"/></clipPath></defs></svg>