<svg width="22" height="22" viewBox="0 0 22 22" fill="none" xmlns="http://www.w3.org/2000/svg">
<path d="M10.7 20.05C10.2358 20.05 9.7907 19.8657 9.46251 19.5375C9.13433 19.2093 8.94995 18.7642 8.94995 18.3H12.45C12.45 18.7642 12.2656 19.2093 11.9374 19.5375C11.6092 19.8657 11.1641 20.05 10.7 20.05ZM17.7 17.425H3.69995V15.675L5.44995 14.8V9.98755C5.44995 6.9583 6.69333 4.99392 8.94995 4.45755V2.55005H12.45V4.45755C14.7066 4.99305 15.95 6.95655 15.95 9.98755V14.8L17.7 15.675V17.425ZM10.7 5.8313C10.1744 5.79737 9.64883 5.89572 9.17115 6.11736C8.69347 6.33901 8.27898 6.67687 7.96558 7.10005C7.42093 7.96154 7.1537 8.96938 7.19995 9.98755V15.675H14.2V9.98755C14.2461 8.96939 13.9789 7.96156 13.4343 7.10005C13.1209 6.67687 12.7064 6.33901 12.2288 6.11736C11.7511 5.89572 11.2255 5.79737 10.7 5.8313Z" fill="#F72585"/>
</svg>
