<svg width="80" height="81" viewBox="0 0 80 81" fill="none" xmlns="http://www.w3.org/2000/svg">
<path d="M76 0.00292969H4C1.79086 0.00292969 0 1.79379 0 4.00293V76.0029C0 78.2121 1.79086 80.0029 4 80.0029H76C78.2091 80.0029 80 78.2121 80 76.0029V4.00293C80 1.79379 78.2091 0.00292969 76 0.00292969Z" fill="#121214"/>
<path d="M40.0853 16.0029C26.7671 16.0029 16 26.7701 16 40.0882C16 53.4064 26.7671 64.1734 40.0853 64.1734C53.4034 64.1734 64.1705 53.4064 64.1705 40.0882V16.0029H40.0853Z" fill="#F0047F"/>
<path d="M39.3072 40.833V57.7204C30.1671 57.3338 22.8066 49.9731 22.4199 40.833H39.3072Z" fill="white" stroke="#F0047F"/>
<path d="M40.8311 40.8662H57.7183C57.3316 50.0063 49.9711 57.3668 40.8311 57.7534V40.8662Z" fill="white" stroke="#F0047F"/>
<path d="M40.8311 39.3092V22.4131H57.7272V39.3092H40.8311Z" fill="white" stroke="#F0047F"/>
</svg>
